<svg xmlns="http://www.w3.org/2000/svg" width="24" height="24" fill="none"><path fill="#ADB0CD" fill-rule="evenodd" d="m18.67 16.973 2.755 2.755-.849.848L3.85 3.85 4.697 3l2.855 2.855C8.932 5.303 10.432 5 12 5c4.808 0 8.972 2.848 11 7a12.65 12.65 0 0 1-4.33 4.973ZM8.486 6.79l1.664 1.664a4 4 0 0 1 5.398 5.398l2.255 2.255c1.574-1 2.904-2.403 3.845-4.106C19.686 8.45 16.034 6.2 12 6.2a10.8 10.8 0 0 0-3.514.59Zm6.152 6.152a2.8 2.8 0 0 0-3.579-3.579l3.579 3.579Zm1.81 5.204c-1.38.552-2.88.855-4.448.855-4.808 0-8.972-2.848-11-7a12.65 12.65 0 0 1 4.33-4.973l.867.867A11.36 11.36 0 0 0 2.352 12c1.962 3.55 5.614 5.8 9.648 5.8a10.8 10.8 0 0 0 3.514-.59l.934.936ZM8.453 10.15l.909.91a2.8 2.8 0 0 0 3.579 3.579l.91.908a4 4 0 0 1-5.398-5.397Z" clip-rule="evenodd"/></svg>