<svg xmlns="http://www.w3.org/2000/svg" width="27" height="28" fill="none"><path fill="#4285F4" d="M27 14.306c0-1.133-.092-1.96-.29-2.816H13.775v5.112h7.591c-.153 1.27-.98 3.183-2.816 4.47l-.026.17 4.09 3.168.283.029C25.5 22.035 27 18.498 27 14.306Z"/><path fill="#34A853" d="M13.776 27.775c3.719 0 6.841-1.224 9.122-3.336L18.55 21.07c-1.163.811-2.724 1.378-4.775 1.378-3.643 0-6.735-2.403-7.837-5.725l-.162.014-4.252 3.29-.055.155c2.265 4.5 6.918 7.592 12.306 7.592Z"/><path fill="#FBBC05" d="M5.939 16.724A8.48 8.48 0 0 1 5.479 14c0-.95.169-1.867.444-2.725l-.007-.182L1.61 7.749l-.14.067A13.788 13.788 0 0 0 0 14c0 2.22.536 4.316 1.47 6.183l4.469-3.459Z"/><path fill="#EB4335" d="M13.776 5.551c2.586 0 4.331 1.117 5.326 2.051l3.888-3.796C20.602 1.586 17.495.225 13.776.225 8.388.225 3.735 3.316 1.47 7.816l4.454 3.46C7.04 7.953 10.133 5.55 13.776 5.55Z"/></svg>