<svg width="19" height="17" viewBox="0 0 19 17" fill="none" xmlns="http://www.w3.org/2000/svg">
<path fill-rule="evenodd" clip-rule="evenodd" d="M1.53599 1.77802C2.47363 0.840664 3.74517 0.314087 5.07099 0.314087C6.39682 0.314087 7.66836 0.840664 8.60599 1.77802C8.78933 1.96069 9.02533 2.18802 9.31399 2.46002C9.60199 2.18802 9.83766 1.96069 10.021 1.77802C10.9547 0.848691 12.2174 0.325403 13.5348 0.321875C14.8522 0.318347 16.1177 0.834864 17.0564 1.75918C17.9951 2.68349 18.531 3.94091 18.5478 5.25817C18.5646 6.57543 18.0608 7.84609 17.146 8.79402L10.02 15.92C9.83247 16.1075 9.57816 16.2128 9.31299 16.2128C9.04783 16.2128 8.79352 16.1075 8.60599 15.92L1.47999 8.79502C0.566035 7.85242 0.0595042 6.58815 0.0697949 5.27525C0.0800856 3.96235 0.607371 2.70618 1.53599 1.77802Z" fill="black"/>
</svg>
