<svg xmlns="http://www.w3.org/2000/svg" width="96" height="78" fill="none"><path fill="#262626" d="M16.033 24.59h.295c2.754-.197 4.82-2.557 4.721-5.311-.197-2.754-2.557-4.82-5.311-4.722-2.754.099-4.82 2.558-4.722 5.312.099 2.656 2.361 4.721 5.017 4.721Zm-2.36-7.082c.49-.59 1.278-.983 2.065-.983h.196a3.065 3.065 0 0 1 3.05 3.049 3.065 3.065 0 0 1-3.05 3.049 3.065 3.065 0 0 1-3.049-3.05c0-.786.295-1.475.787-2.065Z"/><path fill="#262626" d="M83.311 19.082 57.05 17.607l-.197-2.951c-.295-5.607-5.114-9.935-10.82-9.64L12.69 6.886c-5.607.294-9.935 5.212-9.64 10.819l1.869 33.442v.787c.689 5.115 5.016 8.951 10.131 8.951h.59l21.345-1.18v.59c-.296 5.607 3.934 10.525 9.639 10.82l33.443 1.967h.59c5.41 0 9.934-4.23 10.23-9.64L92.851 30c.394-5.705-3.934-10.525-9.54-10.918Zm-76.23-7.475a8.114 8.114 0 0 1 5.706-2.755l33.442-1.868c4.525-.295 8.46 3.245 8.755 7.77l.196 2.754-5.213-.295c-5.606-.295-10.524 3.934-10.82 9.64l-.59 9.344-9.344 10.524c-.197.295-.59.394-.983.492-.394 0-.689-.098-.984-.393l-7.672-6.886c-1.377-1.278-3.443-1.081-4.722.296l-7.967 8.95-1.77-31.475c-.197-2.262.59-4.426 1.967-6.098ZM15.64 58.82c-4.23.196-7.967-2.754-8.655-6.984l9.246-10.328c.196-.295.59-.393.983-.492.393 0 .689.099.984.394l7.672 6.885c.688.59 1.574.885 2.459.885s1.672-.492 2.262-1.082l7.672-8.655-1.082 18.295-21.54 1.082Zm75.246-29.017-1.967 33.443c-.295 4.524-4.23 8.065-8.754 7.77L46.72 69.05c-4.524-.295-8.065-4.23-7.77-8.754l1.967-33.443c.295-4.327 3.836-7.77 8.262-7.77h.492l33.443 1.967c4.623.295 8.065 4.23 7.77 8.754Z"/><path fill="#262626" d="M76.918 41.902 60.295 30.984c-2.066-1.377-4.82-.787-6.098 1.278-.394.689-.689 1.377-.689 2.164l-1.18 19.77c-.099 2.46 1.672 4.525 4.131 4.722h.295c.689 0 1.377-.197 1.967-.492l17.705-8.852a4.412 4.412 0 0 0 1.967-5.902 6.44 6.44 0 0 0-1.475-1.77Zm-1.377 5.901-17.705 8.853a2.722 2.722 0 0 1-1.279.295c-.393 0-.885-.197-1.18-.394-.689-.491-1.18-1.278-1.082-2.164l1.18-19.77c.099-.885.59-1.672 1.377-2.066.787-.393 1.673-.295 2.46.099l16.426 10.918c1.18.787 1.475 2.262.688 3.344a1.93 1.93 0 0 1-.885.885Z"/></svg>