<svg xmlns="http://www.w3.org/2000/svg" width="24" height="24" fill="none"><path fill="#000" d="M11.998 1.5c-.707 0-1.385.316-1.885.879-.5.562-.781 1.325-.781 2.12 0 .797.28 1.56.78 2.122.5.563 1.179.879 1.886.879.707 0 1.385-.316 1.885-.879.5-.562.781-1.325.781-2.121s-.28-1.559-.78-2.121c-.5-.563-1.179-.879-1.886-.879Zm-4 3c0-1.194.422-2.338 1.172-3.182C9.92.474 10.937 0 11.998 0c1.06 0 2.078.474 2.828 1.318.75.844 1.171 1.988 1.171 3.182 0 1.193-.421 2.338-1.171 3.182C14.076 8.526 13.059 9 11.998 9c-1.06 0-2.078-.474-2.828-1.318-.75-.844-1.171-1.989-1.171-3.182Zm-2.595 7.494a4.132 4.132 0 0 0-.068.756v.817l-3.507 1.058a.683.683 0 0 0-.405.349.833.833 0 0 0-.067.569l.862 3.622c.253 1.061.843 1.981 1.657 2.587.814.606 1.797.856 2.764.703.307.465.66.89 1.052 1.264l-.228.075a4.759 4.759 0 0 1-2.077.154 4.945 4.945 0 0 1-1.97-.752 5.584 5.584 0 0 1-1.565-1.544 6.329 6.329 0 0 1-.92-2.1L.068 15.93a2.523 2.523 0 0 1-.05-.876c.033-.293.119-.576.25-.832.131-.255.306-.48.515-.66a1.92 1.92 0 0 1 .7-.388l3.92-1.18Zm13.263 1.573v-.817c0-.26-.023-.512-.067-.756l3.92 1.182c.512.154.948.532 1.213 1.048.265.517.337 1.131.2 1.707l-.863 3.623a6.319 6.319 0 0 1-.956 2.152c-.445.637-1 1.166-1.632 1.556-.632.39-1.327.63-2.043.71a4.772 4.772 0 0 1-2.127-.251 7.268 7.268 0 0 0 1.051-1.265c.967.153 1.95-.097 2.764-.703.814-.607 1.403-1.527 1.656-2.588l.863-3.622a.832.832 0 0 0-.067-.57.683.683 0 0 0-.404-.348l-3.508-1.058Zm-.003-6.817a2.4 2.4 0 0 1 .586-1.591 1.894 1.894 0 0 1 1.414-.66c.53 0 1.039.238 1.414.66a2.4 2.4 0 0 1 .586 1.59 2.4 2.4 0 0 1-.586 1.592A1.894 1.894 0 0 1 20.663 9c-.53 0-1.039-.237-1.414-.66a2.4 2.4 0 0 1-.586-1.59Zm2-3.75c-.884 0-1.732.395-2.357 1.098-.625.704-.976 1.657-.976 2.652 0 .994.352 1.948.977 2.651.625.704 1.472 1.099 2.356 1.099.884 0 1.732-.395 2.357-1.099.625-.703.976-1.657.976-2.651 0-.995-.351-1.948-.976-2.652C22.395 3.395 21.547 3 20.663 3ZM3.333 4.5c-.53 0-1.04.237-1.414.659a2.4 2.4 0 0 0-.586 1.59 2.4 2.4 0 0 0 .586 1.592c.375.422.883.659 1.414.659.53 0 1.039-.237 1.414-.66a2.4 2.4 0 0 0 .585-1.59 2.4 2.4 0 0 0-.585-1.591 1.894 1.894 0 0 0-1.414-.66ZM0 6.75c0-.995.351-1.948.976-2.652C1.601 3.395 2.45 3 3.333 3c.884 0 1.731.395 2.356 1.098.625.704.977 1.657.977 2.652 0 .994-.352 1.948-.977 2.651-.625.704-1.472 1.099-2.356 1.099-.884 0-1.732-.395-2.357-1.099C.351 8.698 0 7.744 0 6.75Zm8.665 3.75c-.53 0-1.039.237-1.414.659a2.4 2.4 0 0 0-.585 1.59V18c0 1.592.561 3.118 1.561 4.243 1 1.125 2.357 1.758 3.771 1.758 1.414 0 2.77-.633 3.77-1.758S17.33 19.591 17.33 18v-5.25a2.4 2.4 0 0 0-.585-1.591 1.894 1.894 0 0 0-1.414-.66H8.665ZM8 12.75a.8.8 0 0 1 .195-.53.631.631 0 0 1 .471-.22h6.666c.177 0 .346.079.471.22a.8.8 0 0 1 .195.53V18c0 1.193-.421 2.338-1.171 3.182-.75.844-1.767 1.318-2.828 1.318-1.06 0-2.078-.474-2.828-1.318-.75-.844-1.171-1.989-1.171-3.182v-5.25Z"/></svg>