<svg xmlns="http://www.w3.org/2000/svg" width="24" height="24" fill="none"><path fill="#000" d="M2.727 24c-.75 0-1.392-.26-1.925-.783A2.545 2.545 0 0 1 0 21.333V2.667C0 1.933.267 1.306.802.784A2.663 2.663 0 0 1 2.727 0h8.182c.386 0 .71.128.972.384s.393.572.392.95c-.001.376-.132.693-.393.95a1.32 1.32 0 0 1-.97.383H2.726v18.666h8.182c.386 0 .71.128.972.384s.393.573.392.95c-.001.377-.132.693-.393.95a1.32 1.32 0 0 1-.97.383H2.726ZM19.33 13.333H9.545c-.386 0-.71-.128-.97-.384A1.282 1.282 0 0 1 8.182 12c-.001-.377.13-.693.393-.95.262-.255.586-.383.97-.383h9.784l-2.556-2.5a1.21 1.21 0 0 1-.375-.9c0-.356.125-.667.375-.934.25-.266.568-.405.954-.417a1.3 1.3 0 0 1 .989.384l4.875 4.767a1.265 1.265 0 0 1 0 1.866L18.716 17.7a1.285 1.285 0 0 1-.971.384 1.405 1.405 0 0 1-.972-.417 1.277 1.277 0 0 1-.357-.95c.011-.366.142-.672.39-.917l2.523-2.467Z"/></svg>