<svg xmlns="http://www.w3.org/2000/svg" width="24" height="24" fill="none"><path fill="#000" d="m23.73 15.139-2.5-2.24V9.93c-.002-2.051-.853-4.028-2.388-5.549-1.534-1.521-3.643-2.478-5.919-2.685V0h-1.846v1.697C8.8 1.904 6.692 2.86 5.157 4.382 3.624 5.903 2.773 7.88 2.77 9.931v2.968L.27 15.139a.787.787 0 0 0-.27.585v2.483c0 .22.097.43.27.585a.98.98 0 0 0 .653.242h6.462v.643c-.02 1.05.392 2.07 1.158 2.864.767.794 1.834 1.306 2.996 1.439a5.126 5.126 0 0 0 1.902-.188 4.77 4.77 0 0 0 1.654-.863c.478-.388.86-.86 1.122-1.39.262-.527.398-1.1.398-1.677v-.828h6.462a.98.98 0 0 0 .653-.242.787.787 0 0 0 .27-.585v-2.483c0-.22-.097-.43-.27-.585Zm-8.96 4.723c0 .658-.293 1.29-.812 1.755a2.94 2.94 0 0 1-1.958.727 2.94 2.94 0 0 1-1.958-.727c-.52-.465-.811-1.097-.811-1.755v-.828h5.538v.828Zm7.384-2.483H1.846v-1.313l2.499-2.24a.787.787 0 0 0 .27-.585v-3.31c0-1.756.778-3.44 2.163-4.682C8.163 4.008 10.041 3.31 12 3.31c1.959 0 3.837.698 5.222 1.94 1.385 1.241 2.163 2.925 2.163 4.68v3.311c0 .22.097.43.27.585l2.499 2.24v1.313Z"/></svg>