<svg xmlns="http://www.w3.org/2000/svg" width="24" height="24" fill="none"><path fill="#000" d="M11.25 6a.75.75 0 0 1 .75.75v3.75h3.75a.75.75 0 1 1 0 1.5H12v3.75a.75.75 0 1 1-1.5 0V12H6.75a.75.75 0 1 1 0-1.5h3.75V6.75a.75.75 0 0 1 .75-.75Z"/><path fill="#000" fill-rule="evenodd" d="M0 9.6c0-3.36 0-5.04.654-6.33A6.045 6.045 0 0 1 3.279.645c1.284-.654 2.97-.654 6.33-.654h3.3c3.36 0 5.04 0 6.33.654a6.039 6.039 0 0 1 2.625 2.625c.654 1.284.654 2.97.654 6.33v3.3c0 3.36 0 5.04-.654 6.33a6.046 6.046 0 0 1-2.625 2.625c-1.284.654-2.97.654-6.33.654h-3.3c-3.36 0-5.04 0-6.33-.654A6.046 6.046 0 0 1 .654 19.23C0 17.946 0 16.26 0 12.9V9.6Zm9.6-8.1h3.3c1.71 0 2.895 0 3.825.076.907.075 1.43.213 1.83.414a4.53 4.53 0 0 1 1.965 1.965c.201.395.339.917.414 1.83.075.926.076 2.115.076 3.825v3.3c0 1.71 0 2.896-.076 3.825-.075.908-.213 1.43-.414 1.83a4.5 4.5 0 0 1-1.965 1.965c-.395.201-.916.34-1.83.415-.926.075-2.115.076-3.825.076H9.6c-1.71 0-2.895 0-3.825-.075-.908-.075-1.43-.215-1.83-.416a4.5 4.5 0 0 1-1.965-1.965c-.201-.394-.339-.915-.414-1.83-.075-.925-.077-2.114-.077-3.824v-3.3c0-1.71 0-2.896.077-3.826.075-.907.213-1.429.414-1.83A4.53 4.53 0 0 1 3.945 1.99c.395-.2.917-.339 1.83-.414C6.7 1.501 7.89 1.5 9.6 1.5Z" clip-rule="evenodd"/></svg>