<svg xmlns="http://www.w3.org/2000/svg" width="20" height="20" fill="none"><path stroke="#000" d="M19 10a8.96 8.96 0 0 1-1.526 5.016A8.991 8.991 0 0 1 10 19a8.99 8.99 0 0 1-8.93-7.882A9 9 0 1 1 19 10Z"/><path fill="#000" d="M11.5 7A1.5 1.5 0 0 1 10 8.5v1A2.5 2.5 0 0 0 12.5 7h-1ZM10 8.5A1.5 1.5 0 0 1 8.5 7h-1A2.5 2.5 0 0 0 10 9.5v-1ZM8.5 7A1.5 1.5 0 0 1 10 5.5v-1A2.5 2.5 0 0 0 7.5 7h1ZM10 5.5A1.5 1.5 0 0 1 11.5 7h1A2.5 2.5 0 0 0 10 4.5v1ZM3.166 15.856l-.48-.142-.077.261.177.207.38-.326Zm13.668 0 .38.326.177-.207-.078-.261-.479.142ZM7 13.5h6v-1H7v1Zm0-1a4.5 4.5 0 0 0-4.314 3.214l.959.285A3.5 3.5 0 0 1 7 13.5v-1Zm3 6a8.481 8.481 0 0 1-6.455-2.97l-.759.652A9.48 9.48 0 0 0 10 19.5v-1Zm3-5a3.5 3.5 0 0 1 3.355 2.5l.958-.286A4.5 4.5 0 0 0 13 12.5v1Zm3.455 2.03A8.48 8.48 0 0 1 10 18.5v1a9.48 9.48 0 0 0 7.214-3.318l-.759-.652Z"/></svg>