<svg xmlns="http://www.w3.org/2000/svg" width="24" height="24" fill="none"><path fill="#000" d="m22.428 15.79-2.346-1.643a7.93 7.93 0 0 0 0-4.32l2.346-1.616-1.87-3.158-2.616 1.162c-1.018-1.01-2.307-1.794-3.815-2.16l-.258-2.792h-3.738l-.258 2.792c-1.508.366-2.797 1.15-3.815 2.16L3.44 5.053 1.572 8.21l2.346 1.616a7.931 7.931 0 0 0 0 4.32L1.572 15.79l1.87 3.157 2.616-1.174a8.453 8.453 0 0 0 3.815 2.147l.258 2.817h3.738l.258-2.817a8.453 8.453 0 0 0 3.815-2.147l2.617 1.174 1.869-3.157ZM14.578 0c.348 0 .645.253.645.581l.231 2.577c.98.354 1.857.871 2.643 1.49L20.48 3.55a.656.656 0 0 1 .851.24l2.578 4.422c.18.265.078.631-.206.82l-2.153 1.478a9.253 9.253 0 0 1 0 2.982l2.153 1.477c.284.19.387.556.206.822l-2.578 4.42a.674.674 0 0 1-.85.215l-2.385-1.086a10.18 10.18 0 0 1-2.643 1.503l-.232 2.526a.632.632 0 0 1-.644.632H9.422a.651.651 0 0 1-.456-.185.625.625 0 0 1-.188-.447l-.232-2.526a10.18 10.18 0 0 1-2.643-1.503l-2.385 1.086a.674.674 0 0 1-.85-.215L.09 15.79c-.18-.266-.078-.632.206-.822l2.153-1.477a9.252 9.252 0 0 1 0-2.982L.296 9.032c-.284-.19-.387-.556-.206-.821l2.578-4.422a.656.656 0 0 1 .85-.24l2.385 1.1a9.47 9.47 0 0 1 2.643-1.491L8.778.58c0-.328.296-.581.644-.581h5.156ZM12 7.579c1.197 0 2.344.466 3.19 1.295A4.377 4.377 0 0 1 16.511 12a4.377 4.377 0 0 1-1.32 3.126A4.559 4.559 0 0 1 12 16.421a4.559 4.559 0 0 1-3.19-1.295A4.377 4.377 0 0 1 7.489 12c0-1.172.475-2.297 1.32-3.126A4.559 4.559 0 0 1 12 7.579Zm0 1.263c-.855 0-1.674.333-2.279.925A3.126 3.126 0 0 0 8.778 12c0 .838.34 1.64.943 2.233a3.256 3.256 0 0 0 2.279.925c.855 0 1.674-.333 2.279-.925A3.126 3.126 0 0 0 15.223 12c0-.838-.34-1.64-.944-2.233A3.256 3.256 0 0 0 12 8.842Z"/></svg>