<svg xmlns="http://www.w3.org/2000/svg" width="16" height="16" fill="none"><path fill="#57606A" stroke="#57606A" stroke-width=".1" d="M6.965 8.33 7 8.366l.035-.036 3.26-3.26.634.635L7 9.635l-1.93-1.93.635-.634 1.26 1.26Z"/><path fill="#57606A" stroke="#57606A" stroke-width=".1" d="m8 15.057-.024-.013-3.087-1.646A5.54 5.54 0 0 1 1.95 8.5M8 15.057l3.088-1.704A5.49 5.49 0 0 0 14 8.5h.05V2A1.05 1.05 0 0 0 13 .95H3A1.05 1.05 0 0 0 1.95 2v6.5M8 15.057l.024-.013 3.088-1.646L8 15.057ZM1.95 8.5H2m-.05 0H2m0 0a5.49 5.49 0 0 0 2.912 4.854L2 8.5Zm1.05 0V2.05h9.9V8.5a4.445 4.445 0 0 1-2.356 3.927L8 13.81l-2.593-1.383A4.445 4.445 0 0 1 3.05 8.5Z"/></svg>