<svg width="17" height="16" viewBox="0 0 17 16" fill="none" xmlns="http://www.w3.org/2000/svg">
<path d="M8.5 3.25C8.91421 3.25 9.25 2.91421 9.25 2.5C9.25 2.08579 8.91421 1.75 8.5 1.75C8.08579 1.75 7.75 2.08579 7.75 2.5C7.75 2.91421 8.08579 3.25 8.5 3.25Z" stroke="black" stroke-width="1.5" stroke-linecap="round" stroke-linejoin="round"/>
<path d="M8.5 8.75C8.91421 8.75 9.25 8.41421 9.25 8C9.25 7.58579 8.91421 7.25 8.5 7.25C8.08579 7.25 7.75 7.58579 7.75 8C7.75 8.41421 8.08579 8.75 8.5 8.75Z" stroke="black" stroke-width="1.5" stroke-linecap="round" stroke-linejoin="round"/>
<path d="M8.5 14.25C8.91421 14.25 9.25 13.9142 9.25 13.5C9.25 13.0858 8.91421 12.75 8.5 12.75C8.08579 12.75 7.75 13.0858 7.75 13.5C7.75 13.9142 8.08579 14.25 8.5 14.25Z" stroke="black" stroke-width="1.5" stroke-linecap="round" stroke-linejoin="round"/>
</svg>
