<svg width="18" height="18" viewBox="0 0 18 18" fill="none" xmlns="http://www.w3.org/2000/svg">
<path d="M9.44 2.01995L11.26 0.199951L17.62 6.54995L15.79 8.36995C15.266 8.03128 14.6419 7.88229 14.0214 7.94779C13.401 8.01329 12.8217 8.28933 12.38 8.72995L11.63 9.47995C10.71 10.41 10.59 11.83 11.28 12.89L9.45 14.71L7.04 12.3L4.24 15.09C3.82 15.51 0.860001 17.7999 0.440001 17.3799C0.0200006 16.9599 2.3 13.99 2.72 13.57L5.51 10.78L3.1 8.35995L4.93 6.53995C5.98 7.22995 7.41 7.10995 8.33 6.17995L9.08 5.42995C10.01 4.50995 10.13 3.07995 9.44 2.01995Z" fill="black"/>
</svg>
