<svg xmlns="http://www.w3.org/2000/svg" width="14" height="17" fill="none"><path fill="#FF3030" stroke="#000" stroke-linecap="round" stroke-linejoin="round" stroke-opacity=".4" stroke-width="1.5" d="M7.448 15.85a.747.747 0 0 1-.896 0C2.689 12.982-1.411 7.082 2.733 2.818A5.957 5.957 0 0 1 7 1c1.6 0 3.135.654 4.267 1.817 4.144 4.264.044 10.163-3.819 13.033Z"/><path fill="#fff" stroke="#000" stroke-linecap="round" stroke-linejoin="round" stroke-opacity=".4" stroke-width="1.5" d="M7 8.5c.424 0 .831-.176 1.131-.488.3-.313.47-.737.47-1.179 0-.442-.17-.866-.47-1.178A1.568 1.568 0 0 0 7 5.167c-.424 0-.831.175-1.131.488-.3.312-.469.736-.469 1.178 0 .442.169.866.469 1.179.3.312.707.488 1.131.488Z"/></svg>